# xmcd
#
# Track frame offsets:
#	150
#	14693
#	33939
#	47019
#	59082
#	71703
#	87331
#	109287
#	130943
#
# Disc length: 1912 seconds
#
# Revision: 0
# Processed by: cddbd v1.5.2PL0 Copyright (c) Steve Scherf et al.
# Submitted via: audiograbber 1.83.01
#
DISCID=82077609
DTITLE=Various Artist - CD TEX Vol. 71 Christmas 2008
DYEAR=2008
DGENRE=Country
TTITLE0=Tommy Joe Wilson - Overdrawn Over Christmas
TTITLE1=John Arthur Martinez - What A Christmas It Was
TTITLE2=The Geezinslaws - Lighten Up It's Christmas
TTITLE3=The Geezinslaws - Randolf The Brown Nosed Reindeer
TTITLE4=Jim Stricklan - Texas Mistletoe
TTITLE5=Johnny Lyon - A Soldier's Christmas Tree
TTITLE6=Billy O'Rourke - Me And Uncle Sam
TTITLE7=Tommy Alverson - Corpus Christi
TTITLE8=Michael O'Neill and Jimmy Baldwin - Beer Can Christmas Tree
EXTD=
EXTT0=
EXTT1=
EXTT2=
EXTT3=
EXTT4=
EXTT5=
EXTT6=
EXTT7=
EXTT8=
PLAYORDER=
